<svg version="1.1" id="Layer_1" xmlns="http://www.w3.org/2000/svg" xmlns:xlink="http://www.w3.org/1999/xlink" x="0px" y="0px"
	 width="100%" viewBox="0 0 661 199" enable-background="new 0 0 661 199" xml:space="preserve">
<path fill="#376AE0" opacity="1.000000" stroke="none" 
	d="
M510.000000,200.000000 
	C340.000031,200.000000 170.500046,200.000000 1.000046,200.000000 
	C1.000030,133.666702 1.000030,67.333389 1.000015,1.000063 
	C221.333267,1.000042 441.666534,1.000042 661.999878,1.000021 
	C661.999878,67.333275 661.999878,133.666550 661.999939,199.999908 
	C611.500000,200.000000 561.000000,200.000000 510.000000,200.000000 
M340.939026,127.049530 
	C340.939026,127.049530 340.985443,126.916405 341.743073,126.914062 
	C349.503265,124.599487 356.006714,120.403397 361.652466,113.725204 
	C363.841858,110.064476 366.718384,106.643883 368.096649,102.699707 
	C372.970398,88.752380 362.873322,77.495369 348.381348,80.323952 
	C347.037292,80.586281 345.689026,80.827126 344.045898,81.133247 
	C344.244110,79.813507 344.305176,79.159546 344.443451,78.522331 
	C347.881500,62.678085 351.327698,46.835609 355.067871,30.262423 
	C355.808746,26.885714 356.510620,23.499859 357.299622,20.134441 
	C358.485229,15.077391 357.156464,11.897132 353.405579,10.995049 
	C349.169037,9.976155 346.409332,12.126883 345.258331,17.462111 
	C344.215576,22.295732 343.262817,27.148767 342.069397,32.654293 
	C342.076843,33.114208 342.084290,33.574123 341.692566,34.673168 
	C336.822906,56.719341 331.960693,78.767166 327.081207,100.811157 
	C323.312012,117.839035 319.497833,134.856995 315.755310,151.890701 
	C314.717560,156.613831 316.320343,159.856110 319.885986,160.689743 
	C323.525757,161.540710 326.329742,159.422897 327.488861,154.655914 
	C328.426727,150.798798 329.104645,146.878494 330.023621,142.921906 
	C330.023621,142.921906 329.959198,142.796204 330.271423,142.546051 
	C330.300812,142.179291 330.330200,141.812546 330.912018,140.400620 
	C331.121155,140.066650 331.330292,139.732666 331.568481,139.521927 
	C331.568481,139.521927 331.685791,139.474258 332.002533,140.081390 
	C332.316223,140.403687 332.629944,140.725998 333.076263,141.737564 
	C337.348572,147.206085 341.194946,153.090820 346.015259,158.023834 
	C350.659393,162.776505 356.924805,163.400833 362.515533,159.670486 
	C366.125153,157.262039 369.420319,157.411728 373.203369,158.060013 
	C378.279968,158.929962 383.373627,159.914825 388.499207,160.249786 
	C420.877838,162.365829 447.913055,152.565475 464.563110,123.165024 
	C479.626465,96.566307 481.818024,68.013962 473.195892,38.793072 
	C469.396973,25.918478 460.386780,17.960197 447.175049,15.340701 
	C442.493774,14.412553 437.563690,14.061966 432.801300,14.348269 
	C418.809418,15.189432 405.825562,19.752768 393.457886,26.154718 
	C389.955444,27.967705 388.725433,30.970140 390.602875,34.497070 
	C392.356262,37.790974 395.298340,38.457104 398.711395,36.810783 
	C402.122253,35.165524 405.556366,33.568451 409.802185,31.901499 
	C410.328522,31.758266 410.854828,31.615032 411.574158,31.637079 
	C411.574158,31.637079 411.825104,31.597408 411.965820,32.386101 
	C411.959534,32.920124 411.953217,33.454151 411.450104,34.548431 
	C409.513397,42.594715 407.598572,50.646343 405.636078,58.686329 
	C398.449341,88.128578 391.246765,117.566963 383.986755,147.016174 
	C383.986755,147.016174 384.009125,147.076263 383.202576,147.209579 
	C380.867126,146.963058 378.531677,146.716537 375.967957,146.085098 
	C375.967957,146.085098 375.615936,145.808762 375.875336,145.107742 
	C377.516907,141.268402 377.354645,137.856766 373.063049,135.984268 
	C368.893768,134.165146 366.680847,136.829269 364.779877,140.040298 
	C363.688446,141.883972 362.467896,143.667923 361.150848,145.358261 
	C356.909912,150.801102 354.069458,150.967056 350.111816,145.403778 
	C346.390747,140.173019 343.242645,134.534668 339.959198,128.281616 
	C340.027130,128.022858 340.095062,127.764091 340.466766,127.496536 
	C340.661804,127.388748 340.774841,127.224312 340.939026,127.049530 
M185.958359,148.162415 
	C186.470688,143.039322 186.464127,137.800140 187.580261,132.812149 
	C194.400833,102.331398 201.412720,71.892830 208.511932,41.475460 
	C210.248489,34.034969 212.620941,26.744963 214.560440,19.348900 
	C215.552887,15.564304 214.848343,12.162862 210.561172,11.031649 
	C206.398712,9.933342 203.947479,12.163531 202.833176,16.091385 
	C202.606339,16.890997 202.338776,17.679977 202.136917,18.485624 
	C194.266632,49.898121 186.019440,81.223701 178.734512,112.771454 
	C176.024384,124.507790 175.030380,136.730194 174.259598,148.795212 
	C173.677628,157.904724 178.718704,162.073929 187.929520,161.921173 
	C197.205551,161.767349 203.093582,155.860138 208.640167,149.514130 
	C211.139618,146.654434 211.635162,143.314377 208.571533,140.632202 
	C205.416794,137.870209 202.301285,138.727234 199.293472,141.546646 
	C196.050537,144.586456 192.456802,147.252060 188.287613,150.069977 
	C187.461945,149.727570 186.636292,149.385162 185.958359,148.162415 
M546.755493,34.294006 
	C530.758728,18.181452 510.108093,20.577190 498.233582,39.964760 
	C496.672028,42.514339 495.211151,45.151516 493.978851,47.872749 
	C482.690674,72.799858 476.777527,98.855484 478.255493,126.308533 
	C478.731750,135.155380 480.858826,143.703217 485.483948,151.484619 
	C493.103882,164.304520 507.405731,168.486511 520.254761,160.999207 
	C524.778259,158.363281 529.265381,154.989075 532.509888,150.942352 
	C555.907288,121.759438 566.882263,88.226936 565.659546,50.916458 
	C565.326111,40.741478 562.495789,30.908960 555.952515,22.548407 
	C550.434387,15.497748 543.205872,11.558273 534.519714,10.046313 
	C530.559937,9.357060 527.299622,10.469174 526.473633,14.698714 
	C525.657959,18.875120 528.028503,21.240675 532.111694,21.998466 
	C533.418579,22.240992 534.734497,22.521162 535.986755,22.955721 
	C541.522461,24.876717 546.127808,27.893576 547.750061,34.214104 
	C547.586670,34.382874 547.423218,34.551643 546.755493,34.294006 
M171.012665,60.495358 
	C176.558884,41.434681 166.500778,22.068264 148.109177,18.545567 
	C139.981720,16.988848 131.284012,18.027094 122.877426,18.482544 
	C119.068336,18.688910 114.883987,20.227648 115.321358,25.333212 
	C115.749222,30.327749 119.650627,31.034359 123.806274,30.906885 
	C124.087433,30.898262 124.376976,31.163055 125.376129,31.644472 
	C117.007973,69.783493 108.604843,108.081909 100.063843,147.008698 
	C96.322983,145.700363 93.520271,144.763245 90.749390,143.739929 
	C87.430824,142.514359 84.785027,143.393646 83.083557,146.411896 
	C81.274048,149.621826 82.605469,152.221725 85.317314,154.180145 
	C86.511597,155.042633 87.917442,155.698746 89.320419,156.172775 
	C111.152588,163.549484 132.749420,162.929764 153.236404,152.254211 
	C173.589447,141.648483 179.749710,118.366608 167.546112,99.483521 
	C163.591187,93.363914 157.816299,88.420502 152.854187,82.917236 
	C160.825989,77.877182 168.047440,71.422112 171.012665,60.495358 
M50.009285,149.539597 
	C43.544273,147.527191 37.079262,145.514786 30.317251,143.409943 
	C32.454617,140.115128 34.652210,136.615692 36.958523,133.189438 
	C60.923012,97.587852 84.905846,61.998596 108.880424,26.403790 
	C110.658737,23.763557 113.137428,20.677073 110.492775,17.897329 
	C108.618706,15.927522 105.176147,14.514976 102.411392,14.476938 
	C82.094482,14.197428 61.771950,14.325026 41.451191,14.333333 
	C40.286720,14.333809 38.750008,13.955785 38.029079,14.542899 
	C36.032307,16.169048 33.404682,17.951481 32.812294,20.152756 
	C31.926132,23.445639 34.410736,25.738882 37.760521,26.425507 
	C39.369675,26.755344 41.073967,26.682817 42.735390,26.686142 
	C57.226379,26.715149 71.717445,26.708294 86.208412,26.745308 
	C88.286919,26.750616 90.364975,26.933126 93.178726,27.069195 
	C91.909096,29.335009 91.145203,30.949141 90.161400,32.415760 
	C78.301979,50.095421 66.406662,67.750992 54.527470,85.417397 
	C40.421314,106.395683 26.329229,127.383430 12.210030,148.352936 
	C10.408037,151.029205 9.378945,153.742706 11.618879,156.610092 
	C13.790626,159.390182 16.553501,159.399292 19.728817,158.367249 
	C22.224787,157.556015 24.896797,157.022400 27.515820,156.898529 
	C40.247383,156.296417 49.818329,162.582672 59.053394,170.602081 
	C66.642555,177.192291 74.780083,183.616394 83.677711,188.141739 
	C105.039818,199.006546 132.629120,194.105423 149.839630,177.354675 
	C151.351562,175.883148 152.453934,172.868225 152.064163,170.904007 
	C151.723679,169.188171 149.086563,166.888443 147.325775,166.761246 
	C145.197174,166.607422 142.865448,168.359695 140.722351,169.479736 
	C133.991074,172.997726 127.669022,177.837479 120.532921,179.935349 
	C103.126877,185.052444 87.866882,179.326370 74.176926,168.230209 
	C66.458076,161.973831 58.510307,155.999893 50.009285,149.539597 
M642.961121,37.000076 
	C643.404785,40.288044 643.239563,43.835953 644.495300,46.777206 
	C645.409119,48.917496 648.171753,51.538376 650.161316,51.581451 
	C652.037415,51.622070 655.351440,48.797890 655.671997,46.846142 
	C657.796814,33.910568 649.937500,19.328665 638.350525,13.530947 
	C624.646973,6.674146 608.985352,7.985800 599.736145,18.726721 
	C592.790894,26.792137 586.976074,36.214916 582.401917,45.860435 
	C572.041870,67.706848 566.773743,91.135651 565.622498,115.214935 
	C565.137756,125.354462 566.603943,135.755432 568.498108,145.789337 
	C570.123596,154.399719 576.271240,159.669922 585.063965,161.923248 
	C606.809570,167.496033 626.799133,153.821060 637.421387,140.324966 
	C638.573364,138.861359 638.022888,134.344330 636.608582,133.049271 
	C635.150696,131.714249 631.650085,132.368973 629.087402,132.614746 
	C628.211426,132.698761 627.496948,134.208801 626.661926,135.019150 
	C619.305725,142.158173 611.375916,148.355545 601.057617,150.655258 
	C587.576416,153.659897 580.630798,149.240707 578.315796,135.847977 
	C577.639038,131.933075 577.462097,127.896065 577.427673,123.911819 
	C577.244568,102.710258 581.354431,82.186462 588.900269,62.521339 
	C593.031860,51.753941 598.487244,41.390289 604.318726,31.413355 
	C608.735657,23.856596 616.006714,20.383747 625.216003,21.952480 
	C633.847473,23.422802 639.969421,27.677385 642.961121,37.000076 
M212.792664,141.659927 
	C216.350006,159.816772 230.865982,165.792236 243.945435,153.887436 
	C259.506622,139.723801 266.262360,121.538658 264.957001,100.583572 
	C264.426788,92.072289 261.524139,84.299034 252.537918,81.260460 
	C243.746597,78.287788 236.812271,82.827896 231.193985,88.800888 
	C217.509583,103.349274 211.496567,120.856133 212.792664,141.659927 
M290.602417,146.353958 
	C286.559174,148.638458 281.628876,151.004913 278.244659,147.269180 
	C276.164764,144.973236 276.238708,139.844604 276.788940,136.206177 
	C278.753723,123.213608 284.115814,111.405151 291.049316,100.339981 
	C298.188721,88.946304 300.315247,89.025841 307.276825,100.477211 
	C309.205261,103.649406 311.666931,105.629356 315.492981,103.786369 
	C319.274139,101.964989 319.893768,98.522377 318.042847,95.373116 
	C315.553009,91.136658 312.808716,86.709991 309.139069,83.576591 
	C301.233704,76.826431 293.196198,77.985153 286.545959,86.063469 
	C278.085876,96.340347 272.232391,108.134041 268.310272,120.701103 
	C266.017029,128.049088 264.628845,135.913406 264.352753,143.599991 
	C263.977051,154.062317 271.127411,160.582825 281.644684,160.849747 
	C293.848511,161.159470 301.999634,153.920013 309.560425,145.649384 
	C312.264282,142.691681 313.027832,139.502731 310.072327,136.352097 
	C307.543274,133.656067 303.844299,134.412643 300.489197,137.691559 
	C297.533966,140.579666 294.326233,143.209396 290.602417,146.353958 
z"/>
<path fill="#F2F1DA" opacity="1.000000" stroke="none" 
	d="
M340.162964,127.505325 
	C340.095062,127.764091 340.027130,128.022858 339.751770,128.980652 
	C340.401001,138.737595 345.534943,145.288025 352.631104,150.153870 
	C354.218658,151.242432 358.086853,150.145432 360.266663,148.919495 
	C362.597290,147.608704 364.287018,145.047989 366.054657,142.869110 
	C369.973236,138.038895 371.840240,138.174377 374.421478,143.641098 
	C374.773041,144.385666 375.215546,145.087265 375.615936,145.808762 
	C375.615936,145.808762 375.967957,146.085098 376.264221,146.527481 
	C379.013641,149.084122 381.481018,150.206116 384.009125,147.076263 
	C384.009125,147.076263 383.986755,147.016174 384.348083,146.895233 
	C385.848724,144.667023 387.526978,142.682968 388.041351,140.432831 
	C391.856598,123.743416 395.117401,106.921867 399.194092,90.299194 
	C402.793671,75.621689 407.407867,61.195084 411.162689,46.552216 
	C412.186493,42.559696 411.726135,38.186604 411.946899,33.988174 
	C411.953217,33.454151 411.959534,32.920124 411.858276,31.939850 
	C411.750763,31.493597 411.381165,31.471802 411.381165,31.471800 
	C410.854828,31.615032 410.328522,31.758266 409.074524,31.752678 
	C405.326843,32.192142 402.326782,33.025738 399.279114,33.273876 
	C397.536560,33.415756 395.716400,32.604729 393.931183,32.222740 
	C394.867432,30.701027 395.435486,28.503727 396.796753,27.761824 
	C410.820038,20.119131 425.757050,15.675450 441.855988,17.143122 
	C455.174133,18.357281 465.633392,24.831369 469.956696,37.816586 
	C478.430420,63.267979 477.394989,88.720642 466.750458,113.407204 
	C456.700531,136.714676 439.161407,151.309021 414.084656,156.462448 
	C400.123749,159.331528 386.271362,158.025177 372.387177,155.690964 
	C369.579437,155.218933 366.336182,155.501190 363.652466,156.450195 
	C352.894348,160.254471 350.404114,159.812485 342.819183,151.241440 
	C341.057800,149.251099 339.708160,146.887802 337.890442,144.958633 
	C336.464417,143.445175 334.608551,142.336700 332.943634,141.048309 
	C332.629944,140.725998 332.316223,140.403687 331.836487,139.759796 
	C331.670410,139.438187 331.539429,139.398682 331.539429,139.398682 
	C331.330292,139.732666 331.121155,140.066650 330.539307,141.064301 
	C330.097473,142.084061 330.028320,142.440140 329.959198,142.796204 
	C329.959198,142.796204 330.023621,142.921906 329.654633,143.103607 
	C327.879913,146.404694 326.704834,149.660339 324.975250,152.588425 
	C324.050995,154.153168 322.170227,155.152908 320.721130,156.407639 
	C320.061646,154.589890 318.543121,152.597092 318.872467,150.980820 
	C323.319580,129.157425 327.937805,107.367615 332.694397,85.608994 
	C335.854156,71.154976 339.416718,56.788525 342.517029,42.322441 
	C343.076904,39.710014 342.268463,36.804333 342.091736,34.034039 
	C342.084290,33.574123 342.076843,33.114208 342.503845,32.406197 
	C344.389740,34.713219 345.841187,37.268333 347.177856,39.621445 
	C349.678131,36.780750 352.225281,33.886787 354.772430,30.992821 
	C351.327698,46.835609 347.881500,62.678085 344.443451,78.522331 
	C344.305176,79.159546 344.244110,79.813507 344.045898,81.133247 
	C345.689026,80.827126 347.037292,80.586281 348.381348,80.323952 
	C362.873322,77.495369 372.970398,88.752380 368.096649,102.699707 
	C366.718384,106.643883 363.841858,110.064476 360.987549,113.906143 
	C354.159821,117.773987 347.984741,121.440773 341.858612,125.187637 
	C341.390289,125.474075 341.268372,126.326866 340.985443,126.916397 
	C340.985443,126.916405 340.939026,127.049530 340.746796,127.087463 
	C340.393188,127.220284 340.262665,127.346924 340.162964,127.505325 
M396.284637,146.781555 
	C396.854614,147.433487 397.424561,148.085403 398.394409,149.223358 
	C400.085175,149.682175 401.862030,150.728149 403.451324,150.495071 
	C409.378754,149.625748 415.335999,148.678619 421.114227,147.133057 
	C432.546417,144.075195 442.374146,137.915527 449.454803,128.539505 
	C468.190765,103.729790 471.990662,75.640953 465.318237,45.965275 
	C461.045776,26.963366 448.235474,22.655430 430.438568,24.347363 
	C428.901337,24.493507 427.506622,26.138382 425.879852,27.500916 
	C425.743347,27.781902 425.530701,27.981958 424.557556,28.330486 
	C423.641266,29.820982 422.275665,31.200138 421.874664,32.818321 
	C413.034149,68.493896 404.268555,104.188232 395.635193,139.914398 
	C395.176392,141.812927 396.006683,144.022964 396.284637,146.781555 
M355.940155,101.080925 
	C357.076660,97.817146 358.972046,94.139114 354.495575,92.132828 
	C350.771942,90.464005 340.701233,95.776093 339.578827,99.878860 
	C338.201202,104.914467 337.355133,110.095490 336.140991,115.871422 
	C345.292053,113.717918 351.300293,108.922241 355.940155,101.080925 
z"/>
<path fill="#ECECDA" opacity="1.000000" stroke="none" 
	d="
M170.949951,60.895706 
	C168.047440,71.422112 160.825989,77.877182 152.854187,82.917236 
	C157.816299,88.420502 163.591187,93.363914 167.546112,99.483521 
	C179.749710,118.366608 173.589447,141.648483 153.236404,152.254211 
	C132.749420,162.929764 111.152588,163.549484 89.320419,156.172775 
	C87.917442,155.698746 86.511597,155.042633 85.317314,154.180145 
	C82.605469,152.221725 81.274048,149.621826 83.083557,146.411896 
	C84.785027,143.393646 87.430824,142.514359 90.749390,143.739929 
	C93.520271,144.763245 96.322983,145.700363 100.063843,147.008698 
	C108.604843,108.081909 117.007973,69.783493 125.376129,31.644472 
	C124.376976,31.163055 124.087433,30.898262 123.806274,30.906885 
	C119.650627,31.034359 115.749222,30.327749 115.321358,25.333212 
	C114.883987,20.227648 119.068336,18.688910 122.877426,18.482544 
	C131.284012,18.027094 139.981720,16.988848 148.109177,18.545567 
	C166.500778,22.068264 176.558884,41.434681 170.949951,60.895706 
M150.199142,97.282372 
	C143.966782,91.956657 137.594742,87.534126 128.646835,90.993248 
	C125.757179,92.110344 123.912315,93.184525 123.254433,96.496376 
	C121.151886,107.080734 118.686890,117.592697 116.406883,128.142349 
	C114.979866,134.745193 113.633873,141.365555 112.020660,149.082382 
	C117.908936,148.705292 122.985954,149.093307 127.670235,147.917130 
	C135.161011,146.036316 143.072571,144.268768 149.596008,140.408295 
	C165.405502,131.052460 165.565491,111.547516 150.199142,97.282372 
M159.623489,57.808235 
	C162.698029,42.142166 156.703461,31.891579 143.287231,29.436684 
	C139.555511,28.753855 137.826523,29.734728 137.055679,33.523666 
	C134.907852,44.080700 132.443024,54.572819 130.180756,65.107193 
	C129.223022,69.566902 128.458817,74.068176 127.444298,79.404526 
	C141.183319,75.799263 153.589050,72.288399 159.623489,57.808235 
z"/>
<path fill="#D02995" opacity="1.000000" stroke="none" 
	d="
M50.337471,149.719147 
	C58.510307,155.999893 66.458076,161.973831 74.176926,168.230209 
	C87.866882,179.326370 103.126877,185.052444 120.532921,179.935349 
	C127.669022,177.837479 133.991074,172.997726 140.722351,169.479736 
	C142.865448,168.359695 145.197174,166.607422 147.325775,166.761246 
	C149.086563,166.888443 151.723679,169.188171 152.064163,170.904007 
	C152.453934,172.868225 151.351562,175.883148 149.839630,177.354675 
	C132.629120,194.105423 105.039818,199.006546 83.677711,188.141739 
	C74.780083,183.616394 66.642555,177.192291 59.053394,170.602081 
	C49.818329,162.582672 40.247383,156.296417 27.515820,156.898529 
	C24.896797,157.022400 22.224787,157.556015 19.728817,158.367249 
	C16.553501,159.399292 13.790626,159.390182 11.618879,156.610092 
	C9.378945,153.742706 10.408037,151.029205 12.210030,148.352936 
	C26.329229,127.383430 40.421314,106.395683 54.527470,85.417397 
	C66.406662,67.750992 78.301979,50.095421 90.161400,32.415760 
	C91.145203,30.949141 91.909096,29.335009 93.178726,27.069195 
	C90.364975,26.933126 88.286919,26.750616 86.208412,26.745308 
	C71.717445,26.708294 57.226379,26.715149 42.735390,26.686142 
	C41.073967,26.682817 39.369675,26.755344 37.760521,26.425507 
	C34.410736,25.738882 31.926132,23.445639 32.812294,20.152756 
	C33.404682,17.951481 36.032307,16.169048 38.029079,14.542899 
	C38.750008,13.955785 40.286720,14.333809 41.451191,14.333333 
	C61.771950,14.325026 82.094482,14.197428 102.411392,14.476938 
	C105.176147,14.514976 108.618706,15.927522 110.492775,17.897329 
	C113.137428,20.677073 110.658737,23.763557 108.880424,26.403790 
	C84.905846,61.998596 60.923012,97.587852 36.958523,133.189438 
	C34.652210,136.615692 32.454617,140.115128 30.317251,143.409943 
	C37.079262,145.514786 43.544273,147.527191 50.337471,149.719147 
M25.358662,136.878845 
	C22.812441,140.570679 20.240026,144.244797 17.729391,147.960678 
	C16.111265,150.355591 15.920444,152.803055 19.487522,152.837616 
	C24.003723,152.881378 28.528175,152.073395 33.838947,151.555771 
	C32.736336,150.081528 32.357845,149.383316 31.807407,148.869202 
	C26.173334,143.606949 25.840433,142.173370 29.921757,135.801086 
	C32.961609,131.054886 36.503540,126.631577 39.578201,121.905937 
	C42.195004,117.884041 44.463982,113.635834 46.886841,109.487747 
	C46.456902,109.212357 46.026962,108.936958 45.597023,108.661560 
	C44.921669,109.286118 44.106522,109.813148 43.592308,110.550133 
	C37.621437,119.107796 31.695990,127.697151 25.358662,136.878845 
M89.653931,18.947908 
	C87.369011,19.145786 85.084099,19.343664 82.799179,19.541540 
	C82.791100,20.105804 82.783028,20.670067 82.774948,21.234331 
	C84.102676,21.517759 85.418556,21.888462 86.760040,22.070545 
	C95.912003,23.312752 98.077538,27.858513 93.369446,35.872807 
	C92.262047,37.757870 91.381897,39.776436 90.397202,41.733585 
	C90.903145,42.040260 91.409081,42.346935 91.915024,42.653610 
	C96.300888,36.345718 100.929512,30.187641 104.958260,23.659361 
	C106.672493,20.881575 104.167084,19.317966 101.571075,19.122402 
	C97.930931,18.848175 94.259865,18.984409 89.653931,18.947908 
M79.235184,60.315128 
	C77.586174,61.957932 75.937164,63.600735 74.288162,65.243538 
	C74.845795,65.656288 75.403435,66.069038 75.961075,66.481796 
	C77.079147,64.606956 78.197220,62.732117 79.235184,60.315128 
M72.779060,68.868988 
	C72.940796,68.899796 73.102524,68.930603 73.264259,68.961418 
	C73.152550,68.885948 73.040848,68.810471 72.779060,68.868988 
M88.930130,44.749783 
	C88.997955,44.752846 89.065788,44.755905 88.930130,44.749783 
M86.930107,47.749805 
	C86.997932,47.752869 87.065750,47.755936 86.930107,47.749805 
M84.749939,51.069931 
	C84.885048,50.975456 85.020157,50.880981 85.155266,50.786514 
	C85.023247,50.813164 84.891228,50.839813 84.749939,51.069931 
M82.778854,53.869030 
	C82.940697,53.899857 83.102547,53.930679 83.264389,53.961506 
	C83.152603,53.885986 83.040810,53.810463 82.778854,53.869030 
M81.250069,56.930088 
	C81.114952,57.024563 80.979836,57.119038 80.844719,57.213516 
	C80.976746,57.186863 81.108772,57.160210 81.250069,56.930088 
z"/>
<path fill="#EAE9DA" opacity="1.000000" stroke="none" 
	d="
M642.822510,36.620979 
	C639.969421,27.677385 633.847473,23.422802 625.216003,21.952480 
	C616.006714,20.383747 608.735657,23.856596 604.318726,31.413355 
	C598.487244,41.390289 593.031860,51.753941 588.900269,62.521339 
	C581.354431,82.186462 577.244568,102.710258 577.427673,123.911819 
	C577.462097,127.896065 577.639038,131.933075 578.315796,135.847977 
	C580.630798,149.240707 587.576416,153.659897 601.057617,150.655258 
	C611.375916,148.355545 619.305725,142.158173 626.661926,135.019150 
	C627.496948,134.208801 628.211426,132.698761 629.087402,132.614746 
	C631.650085,132.368973 635.150696,131.714249 636.608582,133.049271 
	C638.022888,134.344330 638.573364,138.861359 637.421387,140.324966 
	C626.799133,153.821060 606.809570,167.496033 585.063965,161.923248 
	C576.271240,159.669922 570.123596,154.399719 568.498108,145.789337 
	C566.603943,135.755432 565.137756,125.354462 565.622498,115.214935 
	C566.773743,91.135651 572.041870,67.706848 582.401917,45.860435 
	C586.976074,36.214916 592.790894,26.792137 599.736145,18.726721 
	C608.985352,7.985800 624.646973,6.674146 638.350525,13.530947 
	C649.937500,19.328665 657.796814,33.910568 655.671997,46.846142 
	C655.351440,48.797890 652.037415,51.622070 650.161316,51.581451 
	C648.171753,51.538376 645.409119,48.917496 644.495300,46.777206 
	C643.239563,43.835953 643.404785,40.288044 642.822510,36.620979 
z"/>
<path fill="#EBEADA" opacity="1.000000" stroke="none" 
	d="
M212.712082,141.232544 
	C211.496567,120.856133 217.509583,103.349274 231.193985,88.800888 
	C236.812271,82.827896 243.746597,78.287788 252.537918,81.260460 
	C261.524139,84.299034 264.426788,92.072289 264.957001,100.583572 
	C266.262360,121.538658 259.506622,139.723801 243.945435,153.887436 
	C230.865982,165.792236 216.350006,159.816772 212.712082,141.232544 
M224.266510,136.238586 
	C224.356903,136.897568 224.296982,137.625565 224.562683,138.204041 
	C226.015884,141.367950 227.549042,144.495148 229.054718,147.634964 
	C232.327957,145.952713 235.605072,144.277924 238.867386,142.574768 
	C239.144394,142.430161 239.334366,142.105927 239.545044,141.848969 
	C249.342987,129.899475 254.300873,116.283920 252.987320,100.783333 
	C252.760223,98.103317 251.194000,94.299576 249.165634,93.368011 
	C247.254181,92.490166 243.783722,94.445396 241.255630,95.679741 
	C239.707596,96.435577 238.524979,98.085655 237.379807,99.497604 
	C228.902618,109.949699 224.855728,122.043709 224.266510,136.238586 
z"/>
<path fill="#E9E9DA" opacity="1.000000" stroke="none" 
	d="
M290.916199,146.153595 
	C294.326233,143.209396 297.533966,140.579666 300.489197,137.691559 
	C303.844299,134.412643 307.543274,133.656067 310.072327,136.352097 
	C313.027832,139.502731 312.264282,142.691681 309.560425,145.649384 
	C301.999634,153.920013 293.848511,161.159470 281.644684,160.849747 
	C271.127411,160.582825 263.977051,154.062317 264.352753,143.599991 
	C264.628845,135.913406 266.017029,128.049088 268.310272,120.701103 
	C272.232391,108.134041 278.085876,96.340347 286.545959,86.063469 
	C293.196198,77.985153 301.233704,76.826431 309.139069,83.576591 
	C312.808716,86.709991 315.553009,91.136658 318.042847,95.373116 
	C319.893768,98.522377 319.274139,101.964989 315.492981,103.786369 
	C311.666931,105.629356 309.205261,103.649406 307.276825,100.477211 
	C300.315247,89.025841 298.188721,88.946304 291.049316,100.339981 
	C284.115814,111.405151 278.753723,123.213608 276.788940,136.206177 
	C276.238708,139.844604 276.164764,144.973236 278.244659,147.269180 
	C281.628876,151.004913 286.559174,148.638458 290.916199,146.153595 
z"/>
<path fill="#E2E2DA" opacity="1.000000" stroke="none" 
	d="
M548.251465,33.718727 
	C546.127808,27.893576 541.522461,24.876717 535.986755,22.955721 
	C534.734497,22.521162 533.418579,22.240992 532.111694,21.998466 
	C528.028503,21.240675 525.657959,18.875120 526.473633,14.698714 
	C527.299622,10.469174 530.559937,9.357060 534.519714,10.046313 
	C543.205872,11.558273 550.434387,15.497748 555.952515,22.548407 
	C562.495789,30.908960 565.326111,40.741478 565.659546,50.916458 
	C566.882263,88.226936 555.907288,121.759438 532.509888,150.942352 
	C529.265381,154.989075 524.778259,158.363281 520.254761,160.999207 
	C507.405731,168.486511 493.103882,164.304520 485.483948,151.484619 
	C480.858826,143.703217 478.731750,135.155380 478.255493,126.308533 
	C476.777527,98.855484 482.690674,72.799858 493.978851,47.872749 
	C495.211151,45.151516 496.672028,42.514339 498.233582,39.964760 
	C510.108093,20.577190 530.758728,18.181452 547.096069,34.723141 
	C547.659241,35.402222 547.751343,35.693504 547.354736,36.010323 
	C545.133240,34.999638 543.338135,33.838310 541.393494,33.042183 
	C536.262146,30.941404 531.193115,27.794323 525.870239,27.232201 
	C512.824951,25.854527 504.823669,33.667316 499.259064,44.464954 
	C488.745575,64.865448 482.835083,86.621773 481.128937,109.439697 
	C480.256500,121.107292 480.785553,132.879440 485.214142,143.905441 
	C492.248779,161.419739 509.095612,167.107956 524.087830,154.573395 
	C534.983826,145.463577 541.989624,133.670486 547.779907,121.055099 
	C555.535400,104.157890 560.939819,86.583839 562.593567,67.929260 
	C563.717407,55.252960 562.769409,42.850014 557.417480,31.272245 
	C553.205200,22.159986 546.405396,15.368587 535.853455,13.845075 
	C534.528503,13.653766 532.954651,15.186494 531.496094,15.920429 
	C532.426758,17.131186 533.112427,18.792366 534.338867,19.459560 
	C536.950928,20.880550 540.126587,21.365030 542.556213,22.999100 
	C546.326477,25.534891 550.513855,28.216515 548.881104,33.923321 
	C548.674988,33.843571 548.251465,33.718727 548.251465,33.718727 
z"/>
<path fill="#F5F4DA" opacity="1.000000" stroke="none" 
	d="
M185.810623,149.042755 
	C186.636292,149.385162 187.461945,149.727570 188.948364,150.234711 
	C191.836960,149.623047 194.200714,149.097580 196.248352,147.988480 
	C197.804291,147.145706 198.767136,145.141861 200.344147,144.422424 
	C201.959625,143.685440 204.001328,143.882706 205.856461,143.671051 
	C205.666122,145.465317 206.159042,147.985077 205.162674,148.923401 
	C201.577866,152.299377 197.870132,155.941269 193.510254,158.011414 
	C185.569229,161.781998 177.284714,157.742218 177.160019,150.227493 
	C177.011627,141.284760 176.675049,132.037918 178.627014,123.422882 
	C185.576004,92.753113 193.423767,62.286106 201.032425,31.767559 
	C202.278076,26.771276 203.865326,21.838718 205.679214,17.021492 
	C206.101822,15.899091 208.096176,15.368517 209.367340,14.565638 
	C210.166183,15.892198 211.252151,17.136267 211.665115,18.573677 
	C211.950592,19.567429 211.364349,20.843294 211.069443,21.967329 
	C207.141083,36.940205 202.784210,51.814892 199.348907,66.899597 
	C193.994614,90.410843 189.105530,114.032829 184.436615,137.690231 
	C183.734955,141.245544 185.296188,145.247437 185.810623,149.042755 
z"/>
<path fill="#D5D8D9" opacity="1.000000" stroke="none" 
	d="
M185.884491,148.602585 
	C185.296188,145.247437 183.734955,141.245544 184.436615,137.690231 
	C189.105530,114.032829 193.994614,90.410843 199.348907,66.899597 
	C202.784210,51.814892 207.141083,36.940205 211.069443,21.967329 
	C211.364349,20.843294 211.950592,19.567429 211.665115,18.573677 
	C211.252151,17.136267 210.166183,15.892198 209.367340,14.565638 
	C208.096176,15.368517 206.101822,15.899091 205.679214,17.021492 
	C203.865326,21.838718 202.278076,26.771276 201.032425,31.767559 
	C193.423767,62.286106 185.576004,92.753113 178.627014,123.422882 
	C176.675049,132.037918 177.011627,141.284760 177.160019,150.227493 
	C177.284714,157.742218 185.569229,161.781998 193.510254,158.011414 
	C197.870132,155.941269 201.577866,152.299377 205.162674,148.923401 
	C206.159042,147.985077 205.666122,145.465317 205.856461,143.671051 
	C204.001328,143.882706 201.959625,143.685440 200.344147,144.422424 
	C198.767136,145.141861 197.804291,147.145706 196.248352,147.988480 
	C194.200714,149.097580 191.836960,149.623047 189.312607,150.240189 
	C192.456802,147.252060 196.050537,144.586456 199.293472,141.546646 
	C202.301285,138.727234 205.416794,137.870209 208.571533,140.632202 
	C211.635162,143.314377 211.139618,146.654434 208.640167,149.514130 
	C203.093582,155.860138 197.205551,161.767349 187.929520,161.921173 
	C178.718704,162.073929 173.677628,157.904724 174.259598,148.795212 
	C175.030380,136.730194 176.024384,124.507790 178.734512,112.771454 
	C186.019440,81.223701 194.266632,49.898121 202.136917,18.485624 
	C202.338776,17.679977 202.606339,16.890997 202.833176,16.091385 
	C203.947479,12.163531 206.398712,9.933342 210.561172,11.031649 
	C214.848343,12.162862 215.552887,15.564304 214.560440,19.348900 
	C212.620941,26.744963 210.248489,34.034969 208.511932,41.475460 
	C201.412720,71.892830 194.400833,102.331398 187.580261,132.812149 
	C186.464127,137.800140 186.470688,143.039322 185.884491,148.602585 
z"/>
<path fill="#E8E8DA" opacity="1.000000" stroke="none" 
	d="
M333.009949,141.392944 
	C334.608551,142.336700 336.464417,143.445175 337.890442,144.958633 
	C339.708160,146.887802 341.057800,149.251099 342.819183,151.241440 
	C350.404114,159.812485 352.894348,160.254471 363.652466,156.450195 
	C366.336182,155.501190 369.579437,155.218933 372.387177,155.690964 
	C386.271362,158.025177 400.123749,159.331528 414.084656,156.462448 
	C439.161407,151.309021 456.700531,136.714676 466.750458,113.407204 
	C477.394989,88.720642 478.430420,63.267979 469.956696,37.816586 
	C465.633392,24.831369 455.174133,18.357281 441.855988,17.143122 
	C425.757050,15.675450 410.820038,20.119131 396.796753,27.761824 
	C395.435486,28.503727 394.867432,30.701027 393.931183,32.222740 
	C395.716400,32.604729 397.536560,33.415756 399.279114,33.273876 
	C402.326782,33.025738 405.326843,32.192142 408.663574,31.777058 
	C405.556366,33.568451 402.122253,35.165524 398.711395,36.810783 
	C395.298340,38.457104 392.356262,37.790974 390.602875,34.497070 
	C388.725433,30.970140 389.955444,27.967705 393.457886,26.154718 
	C405.825562,19.752768 418.809418,15.189432 432.801300,14.348269 
	C437.563690,14.061966 442.493774,14.412553 447.175049,15.340701 
	C460.386780,17.960197 469.396973,25.918478 473.195892,38.793072 
	C481.818024,68.013962 479.626465,96.566307 464.563110,123.165024 
	C447.913055,152.565475 420.877838,162.365829 388.499207,160.249786 
	C383.373627,159.914825 378.279968,158.929962 373.203369,158.060013 
	C369.420319,157.411728 366.125153,157.262039 362.515533,159.670486 
	C356.924805,163.400833 350.659393,162.776505 346.015259,158.023834 
	C341.194946,153.090820 337.348572,147.206085 333.009949,141.392944 
z"/>
<path fill="#E8E8DA" opacity="1.000000" stroke="none" 
	d="
M341.892151,34.353603 
	C342.268463,36.804333 343.076904,39.710014 342.517029,42.322441 
	C339.416718,56.788525 335.854156,71.154976 332.694397,85.608994 
	C327.937805,107.367615 323.319580,129.157425 318.872467,150.980820 
	C318.543121,152.597092 320.061646,154.589890 320.721130,156.407639 
	C322.170227,155.152908 324.050995,154.153168 324.975250,152.588425 
	C326.704834,149.660339 327.879913,146.404694 329.591736,143.135773 
	C329.104645,146.878494 328.426727,150.798798 327.488861,154.655914 
	C326.329742,159.422897 323.525757,161.540710 319.885986,160.689743 
	C316.320343,159.856110 314.717560,156.613831 315.755310,151.890701 
	C319.497833,134.856995 323.312012,117.839035 327.081207,100.811157 
	C331.960693,78.767166 336.822906,56.719341 341.892151,34.353603 
z"/>
<path fill="#E8E8DA" opacity="1.000000" stroke="none" 
	d="
M411.698486,34.268303 
	C411.726135,38.186604 412.186493,42.559696 411.162689,46.552216 
	C407.407867,61.195084 402.793671,75.621689 399.194092,90.299194 
	C395.117401,106.921867 391.856598,123.743416 388.041351,140.432831 
	C387.526978,142.682968 385.848724,144.667023 384.379761,146.890549 
	C391.246765,117.566963 398.449341,88.128578 405.636078,58.686329 
	C407.598572,50.646343 409.513397,42.594715 411.698486,34.268303 
z"/>
<path fill="#FBF8D7" opacity="1.000000" stroke="none" 
	d="
M354.920166,30.627625 
	C352.225281,33.886787 349.678131,36.780750 347.177856,39.621445 
	C345.841187,37.268333 344.389740,34.713219 342.604340,32.075672 
	C343.262817,27.148767 344.215576,22.295732 345.258331,17.462111 
	C346.409332,12.126883 349.169037,9.976155 353.405579,10.995049 
	C357.156464,11.897132 358.485229,15.077391 357.299622,20.134441 
	C356.510620,23.499859 355.808746,26.885714 354.920166,30.627625 
z"/>
<path fill="#E8E8DA" opacity="1.000000" stroke="none" 
	d="
M375.745636,145.458252 
	C375.215546,145.087265 374.773041,144.385666 374.421478,143.641098 
	C371.840240,138.174377 369.973236,138.038895 366.054657,142.869110 
	C364.287018,145.047989 362.597290,147.608704 360.266663,148.919495 
	C358.086853,150.145432 354.218658,151.242432 352.631104,150.153870 
	C345.534943,145.288025 340.401001,138.737595 339.693390,129.377686 
	C343.242645,134.534668 346.390747,140.173019 350.111816,145.403778 
	C354.069458,150.967056 356.909912,150.801102 361.150848,145.358261 
	C362.467896,143.667923 363.688446,141.883972 364.779877,140.040298 
	C366.680847,136.829269 368.893768,134.165146 373.063049,135.984268 
	C377.354645,137.856766 377.516907,141.268402 375.745636,145.458252 
z"/>
<path fill="#E8E8DA" opacity="1.000000" stroke="none" 
	d="
M341.364258,126.915230 
	C341.268372,126.326866 341.390289,125.474075 341.858612,125.187637 
	C347.984741,121.440773 354.159821,117.773987 360.685638,114.053131 
	C356.006714,120.403397 349.503265,124.599487 341.364258,126.915230 
z"/>
<path fill="#E8E8DA" opacity="1.000000" stroke="none" 
	d="
M383.605835,147.142914 
	C381.481018,150.206116 379.013641,149.084122 376.378357,146.719940 
	C378.531677,146.716537 380.867126,146.963058 383.605835,147.142914 
z"/>
<path fill="#E8E8DA" opacity="1.000000" stroke="none" 
	d="
M330.115295,142.671127 
	C330.028320,142.440140 330.097473,142.084061 330.263123,141.586884 
	C330.330200,141.812546 330.300812,142.179291 330.115295,142.671127 
z"/>
<path fill="#E8E8DA" opacity="1.000000" stroke="none" 
	d="
M331.553955,139.460297 
	C331.539429,139.398682 331.670410,139.438187 331.678101,139.456223 
	C331.685791,139.474258 331.568481,139.521927 331.553955,139.460297 
z"/>
<path fill="#E8E8DA" opacity="1.000000" stroke="none" 
	d="
M340.314880,127.500931 
	C340.262665,127.346924 340.393188,127.220284 340.680237,127.064316 
	C340.774841,127.224312 340.661804,127.388748 340.314880,127.500931 
z"/>
<path fill="#E8E8DA" opacity="1.000000" stroke="none" 
	d="
M411.477661,31.554440 
	C411.381165,31.471802 411.750763,31.493597 411.787933,31.545502 
	C411.825104,31.597408 411.574158,31.637079 411.477661,31.554440 
z"/>
<path fill="#697DC5" opacity="1.000000" stroke="none" 
	d="
M397.994537,148.737335 
	C397.424561,148.085403 396.854614,147.433487 396.475281,146.130951 
	C399.308685,134.650909 401.957336,123.822899 404.593140,112.991753 
	C411.479065,84.695595 418.359375,56.398067 425.241943,28.101086 
	C425.530701,27.981958 425.743347,27.781902 426.389496,27.268806 
	C428.712250,26.791895 430.518280,26.441168 432.339600,26.318768 
	C449.544434,25.162531 459.434265,30.817184 463.111328,46.363491 
	C468.339600,68.468086 466.807343,90.095695 457.554779,110.862549 
	C448.605438,130.948730 433.401031,143.571808 411.359070,147.197296 
	C406.939362,147.924225 402.451172,148.234787 397.994537,148.737335 
M407.123810,112.654007 
	C404.990265,121.727272 402.848206,130.798553 400.727386,139.874786 
	C399.879059,143.505142 400.837463,146.065750 405.067108,145.632507 
	C428.773407,143.204315 445.815796,131.212296 455.601349,109.458687 
	C464.385986,89.930138 465.028900,69.501328 461.053528,48.784271 
	C458.407257,34.993587 450.729645,28.917183 436.604492,28.955542 
	C429.025238,28.976124 427.415619,30.184286 425.571686,37.639286 
	C419.455139,62.368088 413.382141,87.107658 407.123810,112.654007 
z"/>
<path fill="#E8E8DA" opacity="1.000000" stroke="none" 
	d="
M398.194458,148.980347 
	C402.451172,148.234787 406.939362,147.924225 411.359070,147.197296 
	C433.401031,143.571808 448.605438,130.948730 457.554779,110.862549 
	C466.807343,90.095695 468.339600,68.468086 463.111328,46.363491 
	C459.434265,30.817184 449.544434,25.162531 432.339600,26.318768 
	C430.518280,26.441168 428.712250,26.791895 426.472412,27.061888 
	C427.506622,26.138382 428.901337,24.493507 430.438568,24.347363 
	C448.235474,22.655430 461.045776,26.963366 465.318237,45.965275 
	C471.990662,75.640953 468.190765,103.729790 449.454803,128.539505 
	C442.374146,137.915527 432.546417,144.075195 421.114227,147.133057 
	C415.335999,148.678619 409.378754,149.625748 403.451324,150.495071 
	C401.862030,150.728149 400.085175,149.682175 398.194458,148.980347 
z"/>
<path fill="#E8E8DA" opacity="1.000000" stroke="none" 
	d="
M424.899750,28.215786 
	C418.359375,56.398067 411.479065,84.695595 404.593140,112.991753 
	C401.957336,123.822899 399.308685,134.650909 396.451385,145.784180 
	C396.006683,144.022964 395.176392,141.812927 395.635193,139.914398 
	C404.268555,104.188232 413.034149,68.493896 421.874664,32.818321 
	C422.275665,31.200138 423.641266,29.820982 424.899750,28.215786 
z"/>
<path fill="#6A7EC3" opacity="1.000000" stroke="none" 
	d="
M355.766357,101.426788 
	C351.300293,108.922241 345.292053,113.717918 336.140991,115.871422 
	C337.355133,110.095490 338.201202,104.914467 339.578827,99.878860 
	C340.701233,95.776093 350.771942,90.464005 354.495575,92.132828 
	C358.972046,94.139114 357.076660,97.817146 355.766357,101.426788 
M341.059021,107.112381 
	C342.352692,107.811401 344.473114,109.389687 344.810883,109.072090 
	C347.862915,106.202339 351.104858,103.311134 353.277039,99.799011 
	C355.047028,96.937126 352.707703,94.705109 349.330536,95.488403 
	C344.449799,96.620445 341.509796,100.446304 341.059021,107.112381 
z"/>
<path fill="#6A7EC5" opacity="1.000000" stroke="none" 
	d="
M150.462250,97.522293 
	C165.565491,111.547516 165.405502,131.052460 149.596008,140.408295 
	C143.072571,144.268768 135.161011,146.036316 127.670235,147.917130 
	C122.985954,149.093307 117.908936,148.705292 112.020660,149.082382 
	C113.633873,141.365555 114.979866,134.745193 116.406883,128.142349 
	C118.686890,117.592697 121.151886,107.080734 123.254433,96.496376 
	C123.912315,93.184525 125.757179,92.110344 128.646835,90.993248 
	C137.594742,87.534126 143.966782,91.956657 150.462250,97.522293 
M131.242615,93.241821 
	C129.199936,95.403290 125.945702,97.262215 125.317719,99.776962 
	C122.054878,112.843109 119.398445,126.063385 116.667381,139.258240 
	C115.632835,144.256546 117.293190,146.630875 122.344765,145.839355 
	C129.996094,144.640472 137.937622,143.376022 144.921936,140.266418 
	C156.782669,134.985718 161.016769,124.520439 157.728271,112.732430 
	C154.565430,101.394806 143.038208,92.576904 131.242615,93.241821 
z"/>
<path fill="#6A7EC4" opacity="1.000000" stroke="none" 
	d="
M159.486725,58.179504 
	C153.589050,72.288399 141.183319,75.799263 127.444298,79.404526 
	C128.458817,74.068176 129.223022,69.566902 130.180756,65.107193 
	C132.443024,54.572819 134.907852,44.080700 137.055679,33.523666 
	C137.826523,29.734728 139.555511,28.753855 143.287231,29.436684 
	C156.703461,31.891579 162.698029,42.142166 159.486725,58.179504 
M136.105042,48.700359 
	C134.913940,54.400784 133.496582,60.067234 132.633163,65.816864 
	C132.238495,68.444992 132.935257,71.237007 133.137024,73.954697 
	C135.485382,73.580368 137.841049,73.245354 140.178070,72.810181 
	C140.984818,72.659950 141.760651,72.296608 142.524368,71.969383 
	C155.321091,66.486397 160.920532,54.634850 156.551910,42.361549 
	C154.792664,37.419044 151.471741,34.180508 146.290955,33.169441 
	C142.560043,32.441334 139.715759,33.501549 138.784531,37.700123 
	C138.027985,41.111057 137.116104,44.487537 136.105042,48.700359 
z"/>
<path fill="#E10B82" opacity="1.000000" stroke="none" 
	d="
M25.558582,136.578476 
	C31.695990,127.697151 37.621437,119.107796 43.592308,110.550133 
	C44.106522,109.813148 44.921669,109.286118 45.597023,108.661560 
	C46.026962,108.936958 46.456902,109.212357 46.886841,109.487747 
	C44.463982,113.635834 42.195004,117.884041 39.578201,121.905937 
	C36.503540,126.631577 32.961609,131.054886 29.921757,135.801086 
	C25.840433,142.173370 26.173334,143.606949 31.807407,148.869202 
	C32.357845,149.383316 32.736336,150.081528 33.838947,151.555771 
	C28.528175,152.073395 24.003723,152.881378 19.487522,152.837616 
	C15.920444,152.803055 16.111265,150.355591 17.729391,147.960678 
	C20.240026,144.244797 22.812441,140.570679 25.558582,136.578476 
z"/>
<path fill="#E10C82" opacity="1.000000" stroke="none" 
	d="
M90.127975,18.946487 
	C94.259865,18.984409 97.930931,18.848175 101.571075,19.122402 
	C104.167084,19.317966 106.672493,20.881575 104.958260,23.659361 
	C100.929512,30.187641 96.300888,36.345718 91.915024,42.653610 
	C91.409081,42.346935 90.903145,42.040260 90.397202,41.733585 
	C91.381897,39.776436 92.262047,37.757870 93.369446,35.872807 
	C98.077538,27.858513 95.912003,23.312752 86.760040,22.070545 
	C85.418556,21.888462 84.102676,21.517759 82.774948,21.234331 
	C82.783028,20.670067 82.791100,20.105804 82.799179,19.541540 
	C85.084099,19.343664 87.369011,19.145786 90.127975,18.946487 
z"/>
<path fill="#E10C82" opacity="1.000000" stroke="none" 
	d="
M79.275238,60.586205 
	C78.197220,62.732117 77.079147,64.606956 75.961075,66.481796 
	C75.403435,66.069038 74.845795,65.656288 74.288162,65.243538 
	C75.937164,63.600735 77.586174,61.957932 79.275238,60.586205 
z"/>
<path fill="#E10C82" opacity="1.000000" stroke="none" 
	d="
M72.854095,68.801994 
	C73.040848,68.810471 73.152550,68.885948 73.264259,68.961418 
	C73.102524,68.930603 72.940796,68.899796 72.854095,68.801994 
z"/>
<path fill="#E10C82" opacity="1.000000" stroke="none" 
	d="
M89.031876,44.754372 
	C89.065788,44.755905 88.997955,44.752846 89.031876,44.754372 
z"/>
<path fill="#E10C82" opacity="1.000000" stroke="none" 
	d="
M87.031845,47.754402 
	C87.065750,47.755936 86.997932,47.752869 87.031845,47.754402 
z"/>
<path fill="#E10C82" opacity="1.000000" stroke="none" 
	d="
M84.754578,50.968197 
	C84.891228,50.839813 85.023247,50.813164 85.155266,50.786510 
	C85.020157,50.880981 84.885048,50.975456 84.754578,50.968197 
z"/>
<path fill="#E10C82" opacity="1.000000" stroke="none" 
	d="
M82.853943,53.801987 
	C83.040810,53.810463 83.152603,53.885986 83.264389,53.961506 
	C83.102547,53.930679 82.940697,53.899857 82.853943,53.801987 
z"/>
<path fill="#E10C82" opacity="1.000000" stroke="none" 
	d="
M81.245438,57.031822 
	C81.108772,57.160210 80.976746,57.186863 80.844719,57.213516 
	C80.979836,57.119038 81.114952,57.024563 81.245438,57.031822 
z"/>
<path fill="#6B7EC4" opacity="1.000000" stroke="none" 
	d="
M224.252350,135.811356 
	C224.855728,122.043709 228.902618,109.949699 237.379807,99.497604 
	C238.524979,98.085655 239.707596,96.435577 241.255630,95.679741 
	C243.783722,94.445396 247.254181,92.490166 249.165634,93.368011 
	C251.194000,94.299576 252.760223,98.103317 252.987320,100.783333 
	C254.300873,116.283920 249.342987,129.899475 239.545044,141.848969 
	C239.334366,142.105927 239.144394,142.430161 238.867386,142.574768 
	C235.605072,144.277924 232.327957,145.952713 229.054718,147.634964 
	C227.549042,144.495148 226.015884,141.367950 224.562683,138.204041 
	C224.296982,137.625565 224.356903,136.897568 224.252350,135.811356 
M250.361710,113.617226 
	C250.551147,109.639046 251.117035,105.626770 250.761276,101.697960 
	C250.598648,99.901901 248.958984,97.563057 247.354919,96.794891 
	C246.140915,96.213531 243.440445,97.229546 242.224304,98.394012 
	C230.932785,109.205879 226.362854,122.739677 227.200104,138.117371 
	C227.302155,139.991562 229.206680,142.384109 230.935272,143.325256 
	C231.996002,143.902771 234.678650,142.588440 236.004425,141.414078 
	C244.096436,134.246292 247.721695,124.638863 250.361710,113.617226 
z"/>
<path fill="#FAF7D8" opacity="1.000000" stroke="none" 
	d="
M549.087158,34.003071 
	C550.513855,28.216515 546.326477,25.534891 542.556213,22.999100 
	C540.126587,21.365030 536.950928,20.880550 534.338867,19.459560 
	C533.112427,18.792366 532.426758,17.131186 531.496094,15.920429 
	C532.954651,15.186494 534.528503,13.653766 535.853455,13.845075 
	C546.405396,15.368587 553.205200,22.159986 557.417480,31.272245 
	C562.769409,42.850014 563.717407,55.252960 562.593567,67.929260 
	C560.939819,86.583839 555.535400,104.157890 547.779907,121.055099 
	C541.989624,133.670486 534.983826,145.463577 524.087830,154.573395 
	C509.095612,167.107956 492.248779,161.419739 485.214142,143.905441 
	C480.785553,132.879440 480.256500,121.107292 481.128937,109.439697 
	C482.835083,86.621773 488.745575,64.865448 499.259064,44.464954 
	C504.823669,33.667316 512.824951,25.854527 525.870239,27.232201 
	C531.193115,27.794323 536.262146,30.941404 541.393494,33.042183 
	C543.338135,33.838310 545.133240,34.999638 547.570374,36.306831 
	C548.870117,36.998234 549.596069,37.377323 550.039001,38.137501 
	C550.380066,42.171619 549.604187,45.470058 545.878967,46.739071 
	C542.069641,48.036728 539.232422,46.268436 537.335571,42.657043 
	C533.341675,35.052982 515.757996,33.645195 511.118958,42.654446 
	C508.167816,48.385700 504.550964,53.826908 502.113800,59.760132 
	C494.943085,77.216843 491.045410,95.532623 490.154816,114.340965 
	C489.669220,124.596375 490.364441,134.964172 495.515228,144.329819 
	C500.346375,153.114288 509.263062,155.321335 516.705627,148.694885 
	C522.455750,143.575348 527.863953,137.647110 531.937134,131.146622 
	C545.405334,109.652260 552.674500,85.916344 553.736694,60.617538 
	C554.052551,53.094906 551.444153,45.449501 550.102722,37.542503 
	C550.009949,36.790295 549.990173,36.355930 549.962769,35.792141 
	C549.910522,35.483044 549.800049,35.364880 549.436401,35.003883 
	C549.194885,34.467392 549.140991,34.235229 549.087158,34.003071 
z"/>
<path fill="#376AE0" opacity="1.000000" stroke="none" 
	d="
M550.321960,37.756405 
	C549.596069,37.377323 548.870117,36.998234 547.928589,36.322632 
	C547.751343,35.693504 547.659241,35.402222 547.348206,34.936340 
	C547.423218,34.551643 547.586670,34.382874 548.000732,33.966415 
	C548.251465,33.718727 548.674988,33.843571 548.881104,33.923321 
	C549.140991,34.235229 549.194885,34.467392 549.403748,35.134178 
	C549.632141,35.760365 549.769348,35.877953 549.970337,35.921570 
	C549.990173,36.355930 550.009949,36.790295 550.138794,37.515800 
	C550.247803,37.806946 550.321960,37.756401 550.321960,37.756405 
z"/>
<path fill="#476ED7" opacity="1.000000" stroke="none" 
	d="
M407.208130,112.248550 
	C413.382141,87.107658 419.455139,62.368088 425.571686,37.639286 
	C427.415619,30.184286 429.025238,28.976124 436.604492,28.955542 
	C450.729645,28.917183 458.407257,34.993587 461.053528,48.784271 
	C465.028900,69.501328 464.385986,89.930138 455.601349,109.458687 
	C445.815796,131.212296 428.773407,143.204315 405.067108,145.632507 
	C400.837463,146.065750 399.879059,143.505142 400.727386,139.874786 
	C402.848206,130.798553 404.990265,121.727272 407.208130,112.248550 
M433.944794,132.499252 
	C436.917572,129.839523 440.391663,127.565666 442.783325,124.458611 
	C460.953888,100.852753 464.729095,74.388611 457.436646,46.029213 
	C455.278351,37.635983 449.468231,32.929012 440.702332,31.787212 
	C432.874451,30.767593 429.603943,32.705803 427.674103,40.376324 
	C423.203400,58.146240 418.741791,75.918755 414.374878,93.714355 
	C411.040253,107.303162 407.754669,120.905815 404.650085,134.548462 
	C403.173798,141.035736 405.235931,143.314026 411.695892,141.397110 
	C419.108307,139.197556 426.173218,135.826859 433.944794,132.499252 
z"/>
<path fill="#486ED7" opacity="1.000000" stroke="none" 
	d="
M341.029816,106.720291 
	C341.509796,100.446304 344.449799,96.620445 349.330536,95.488403 
	C352.707703,94.705109 355.047028,96.937126 353.277039,99.799011 
	C351.104858,103.311134 347.862915,106.202339 344.810883,109.072090 
	C344.473114,109.389687 342.352692,107.811401 341.029816,106.720291 
z"/>
<path fill="#476ED7" opacity="1.000000" stroke="none" 
	d="
M131.651810,93.169868 
	C143.038208,92.576904 154.565430,101.394806 157.728271,112.732430 
	C161.016769,124.520439 156.782669,134.985718 144.921936,140.266418 
	C137.937622,143.376022 129.996094,144.640472 122.344765,145.839355 
	C117.293190,146.630875 115.632835,144.256546 116.667381,139.258240 
	C119.398445,126.063385 122.054878,112.843109 125.317719,99.776962 
	C125.945702,97.262215 129.199936,95.403290 131.651810,93.169868 
M120.993217,131.527893 
	C120.676308,133.661438 120.232536,135.785522 120.072212,137.930771 
	C119.831459,141.152115 121.296173,143.160095 124.695702,142.925995 
	C133.982315,142.286514 142.839981,140.301208 149.862762,133.591187 
	C154.012421,129.626328 156.155945,124.811989 156.041443,118.906853 
	C155.842056,108.624229 149.388748,102.595779 141.685074,97.550163 
	C134.610458,92.916557 129.225769,95.123367 127.192444,103.422958 
	C124.978523,112.459724 123.142715,121.589127 120.993217,131.527893 
z"/>
<path fill="#496FD6" opacity="1.000000" stroke="none" 
	d="
M136.189087,48.289829 
	C137.116104,44.487537 138.027985,41.111057 138.784531,37.700123 
	C139.715759,33.501549 142.560043,32.441334 146.290955,33.169441 
	C151.471741,34.180508 154.792664,37.419044 156.551910,42.361549 
	C160.920532,54.634850 155.321091,66.486397 142.524368,71.969383 
	C141.760651,72.296608 140.984818,72.659950 140.178070,72.810181 
	C137.841049,73.245354 135.485382,73.580368 133.137024,73.954697 
	C132.935257,71.237007 132.238495,68.444992 132.633163,65.816864 
	C133.496582,60.067234 134.913940,54.400784 136.189087,48.289829 
M152.641663,60.995407 
	C157.514099,51.424847 156.310715,42.383003 149.461853,37.103462 
	C146.026077,34.454948 142.268524,34.728863 141.294388,38.413231 
	C138.838867,47.700413 136.833603,57.131039 135.204041,66.599892 
	C134.574387,70.258682 137.244995,71.896973 140.673325,69.958382 
	C144.786407,67.632576 148.406799,64.435448 152.641663,60.995407 
z"/>
<path fill="#4A6FD6" opacity="1.000000" stroke="none" 
	d="
M250.263733,114.034454 
	C247.721695,124.638863 244.096436,134.246292 236.004425,141.414078 
	C234.678650,142.588440 231.996002,143.902771 230.935272,143.325256 
	C229.206680,142.384109 227.302155,139.991562 227.200104,138.117371 
	C226.362854,122.739677 230.932785,109.205879 242.224304,98.394012 
	C243.440445,97.229546 246.140915,96.213531 247.354919,96.794891 
	C248.958984,97.563057 250.598648,99.901901 250.761276,101.697960 
	C251.117035,105.626770 250.551147,109.639046 250.263733,114.034454 
M231.973724,118.631348 
	C230.986404,123.831001 229.688675,129.000320 229.175934,134.246353 
	C228.990173,136.146988 230.682175,138.231140 231.517349,140.231552 
	C233.351517,139.302490 235.731094,138.823837 236.930939,137.370941 
	C244.453674,128.261444 248.446121,117.656784 248.842041,105.857796 
	C248.902130,104.066933 247.614151,101.155190 246.276138,100.687050 
	C244.858185,100.190948 241.859268,101.469360 240.907654,102.884903 
	C237.692490,107.667503 235.079117,112.854683 231.973724,118.631348 
z"/>
<path fill="#366AE0" opacity="1.000000" stroke="none" 
	d="
M550.211792,37.833649 
	C551.444153,45.449501 554.052551,53.094906 553.736694,60.617538 
	C552.674500,85.916344 545.405334,109.652260 531.937134,131.146622 
	C527.863953,137.647110 522.455750,143.575348 516.705627,148.694885 
	C509.263062,155.321335 500.346375,153.114288 495.515228,144.329819 
	C490.364441,134.964172 489.669220,124.596375 490.154816,114.340965 
	C491.045410,95.532623 494.943085,77.216843 502.113800,59.760132 
	C504.550964,53.826908 508.167816,48.385700 511.118958,42.654446 
	C515.757996,33.645195 533.341675,35.052982 537.335571,42.657043 
	C539.232422,46.268436 542.069641,48.036728 545.878967,46.739071 
	C549.604187,45.470058 550.380066,42.171619 550.039001,38.137497 
	C550.321960,37.756401 550.247803,37.806946 550.211792,37.833649 
z"/>
<path fill="#E2E2DA" opacity="1.000000" stroke="none" 
	d="
M549.962769,35.792141 
	C549.769348,35.877953 549.632141,35.760365 549.591309,35.438515 
	C549.800049,35.364880 549.910522,35.483044 549.962769,35.792141 
z"/>
<path fill="#376AE0" opacity="1.000000" stroke="none" 
	d="
M433.666931,132.732086 
	C426.173218,135.826859 419.108307,139.197556 411.695892,141.397110 
	C405.235931,143.314026 403.173798,141.035736 404.650085,134.548462 
	C407.754669,120.905815 411.040253,107.303162 414.374878,93.714355 
	C418.741791,75.918755 423.203400,58.146240 427.674103,40.376324 
	C429.603943,32.705803 432.874451,30.767593 440.702332,31.787212 
	C449.468231,32.929012 455.278351,37.635983 457.436646,46.029213 
	C464.729095,74.388611 460.953888,100.852753 442.783325,124.458611 
	C440.391663,127.565666 436.917572,129.839523 433.666931,132.732086 
z"/>
<path fill="#386ADF" opacity="1.000000" stroke="none" 
	d="
M121.067642,131.103027 
	C123.142715,121.589127 124.978523,112.459724 127.192444,103.422958 
	C129.225769,95.123367 134.610458,92.916557 141.685074,97.550163 
	C149.388748,102.595779 155.842056,108.624229 156.041443,118.906853 
	C156.155945,124.811989 154.012421,129.626328 149.862762,133.591187 
	C142.839981,140.301208 133.982315,142.286514 124.695702,142.925995 
	C121.296173,143.160095 119.831459,141.152115 120.072212,137.930771 
	C120.232536,135.785522 120.676308,133.661438 121.067642,131.103027 
z"/>
<path fill="#396ADF" opacity="1.000000" stroke="none" 
	d="
M152.441101,61.305511 
	C148.406799,64.435448 144.786407,67.632576 140.673325,69.958382 
	C137.244995,71.896973 134.574387,70.258682 135.204041,66.599892 
	C136.833603,57.131039 138.838867,47.700413 141.294388,38.413231 
	C142.268524,34.728863 146.026077,34.454948 149.461853,37.103462 
	C156.310715,42.383003 157.514099,51.424847 152.441101,61.305511 
z"/>
<path fill="#3A6BDE" opacity="1.000000" stroke="none" 
	d="
M232.104706,118.259277 
	C235.079117,112.854683 237.692490,107.667503 240.907654,102.884903 
	C241.859268,101.469360 244.858185,100.190948 246.276138,100.687050 
	C247.614151,101.155190 248.902130,104.066933 248.842041,105.857796 
	C248.446121,117.656784 244.453674,128.261444 236.930939,137.370941 
	C235.731094,138.823837 233.351517,139.302490 231.517365,140.231552 
	C230.682175,138.231140 228.990173,136.146988 229.175934,134.246353 
	C229.688675,129.000320 230.986404,123.831001 232.104706,118.259277 
z"/>
</svg>